PathFileType	4	(X/Y/Z)	s11c0301.trc
DataRate	CameraRate	NumFrames	NumMarkers	Units	OrigDataRate	OrigDataStartFrame	OrigNumFrames
200	200	4	48	mm	200	1750	2000
Frame#	Time	racr			lacr			c7			jug			rlel			rdr			llel			ldr			s2			lic			ric			lasi			rasi			rpsi			lpsi			rgt			lgt			rth1			rth2			rth3			rth4			rlfc			rmfc			rsh1			rsh2			rsh3			rsh4			rlmal			rcal			rtoe			rmt5			lth1			lth2			lth4			lth3			llfc			lmfc			llmal			lcal			lmt5			lsh1			lsh2			lsh3			lsh4			ltoe			SBIKE			LBIKE			RBIKE			
		X1	Y1	Z1	X2	Y2	Z2	X3	Y3	Z3	X4	Y4	Z4	X5	Y5	Z5	X6	Y6	Z6	X7	Y7	Z7	X8	Y8	Z8	X9	Y9	Z9	X10	Y10	Z10	X11	Y11	Z11	X12	Y12	Z12	X13	Y13	Z13	X14	Y14	Z14	X15	Y15	Z15	X16	Y16	Z16	X17	Y17	Z17	X18	Y18	Z18	X19	Y19	Z19	X20	Y20	Z20	X21	Y21	Z21	X22	Y22	Z22	X23	Y23	Z23	X24	Y24	Z24	X25	Y25	Z25	X26	Y26	Z26	X27	Y27	Z27	X28	Y28	Z28	X29	Y29	Z29	X30	Y30	Z30	X31	Y31	Z31	X32	Y32	Z32	X33	Y33	Z33	X34	Y34	Z34	X35	Y35	Z35	X36	Y36	Z36	X37	Y37	Z37	X38	Y38	Z38	X39	Y39	Z39	X40	Y40	Z40	X41	Y41	Z41	X42	Y42	Z42	X43	Y43	Z43	X44	Y44	Z44	X45	Y45	Z45	X46	Y46	Z46	X47	Y47	Z47	X48	Y48	Z48	
1750	8.7500	801.623564	1373.990328	-101.841901	781.358773	1368.748970	-446.075085	766.878448	1467.049427	-273.767420	744.268000	1285.908584	-272.096919	679.626678	1149.566647	38.756622	793.983731	927.962570	-70.333228	607.326887	1138.837180	-583.885024	778.749573	936.470999	-486.018205	163.350211	1290.667250	-251.637192	389.785617	1278.234323	-451.996559	374.821285	1238.828501	-53.525997	401.242855	1202.704623	-404.299794	390.694486	1178.500777	-89.545838	225.265920	1347.744859	-191.529235	218.033387	1350.269297	-287.002413	251.533393	1101.264561	-49.227439	302.622420	1176.866707	-471.342451	274.214558	970.085356	-41.294711	312.307332	889.149602	-50.716016	305.922480	803.881136	-71.434651	348.370900	896.502056	-55.396905	332.001787	704.316106	-93.998007	329.975318	684.021728	-217.957043	275.512032	557.958008	-77.332055	272.940268	470.592497	-90.340395	227.995933	395.840268	-92.436571	301.461228	464.848039	-116.600786	183.367072	266.681662	-102.086124	122.865578	279.640727	-151.184606	367.331066	127.698459	-149.099084	292.837001	131.650220	-79.237500	420.960026	1093.438698	-486.088618	499.029013	1058.224884	-480.418351	521.426612	1083.721361	-464.777738	551.877928	985.348876	-484.419168	638.804237	888.303639	-467.870799	649.983567	870.903016	-334.395493	294.056914	643.037650	-428.513929	238.026883	670.920054	-392.179844	284.952215	467.490199	-453.314388	543.332355	819.302363	-481.709006	492.217735	752.156650	-464.548621	411.858084	716.551009	-456.278360	514.778764	729.040300	-444.193134	349.838833	394.422948	-386.675453	-214.802636	956.681929	-255.704247	-17.697409	80.980133	-460.950152	-17.777468	80.850727	-62.025581	
1751	8.7550	801.277476	1374.373909	-103.628430	779.330112	1369.373949	-447.611303	765.467230	1467.384509	-274.898943	743.167441	1286.165431	-273.724182	680.671960	1150.112734	38.042794	794.239297	927.773112	-70.384416	605.744907	1137.950069	-584.590654	778.597295	936.511110	-486.098596	162.389377	1291.054992	-249.761419	387.567504	1279.488546	-452.675490	376.622897	1238.412476	-53.129346	399.885223	1204.619971	-403.716789	390.759211	1178.164525	-90.363523	224.769687	1348.332894	-188.828286	216.714755	1350.502327	-285.106832	251.045764	1101.541870	-48.771249	301.341293	1178.012389	-470.696005	272.364818	971.029937	-41.178105	309.125911	889.773130	-50.535162	301.494304	804.601234	-70.535133	345.514825	896.881321	-55.082753	326.494641	703.875437	-93.198412	325.846547	683.350900	-217.438882	269.128273	558.274767	-76.786599	265.671959	470.889009	-89.765519	219.822973	396.699500	-91.951737	294.382262	464.980786	-115.753510	174.678777	267.543595	-101.904544	114.601674	281.701713	-150.990239	356.934514	126.376015	-148.894066	282.564346	131.194071	-79.030274	421.388482	1096.009083	-485.303558	499.909278	1061.838743	-479.163035	521.929226	1087.646825	-463.599910	553.748679	989.748712	-483.056657	642.883118	894.061970	-466.032943	653.378428	876.746956	-332.247842	301.265743	643.974914	-427.996213	244.256466	670.665147	-391.820592	295.543980	468.366473	-453.258279	548.898103	823.571008	-479.654950	498.755544	755.568064	-462.908195	419.003990	718.594829	-455.231465	521.558986	732.825014	-442.184489	361.617662	396.438782	-386.676839	-214.854436	956.683680	-255.742656	-17.716648	80.990992	-460.955774	-17.776181	80.867789	-62.039255	
1752	8.7600	800.888052	1374.493931	-105.417534	777.280118	1369.880237	-449.058015	764.188047	1467.615003	-275.989954	741.981199	1286.401367	-275.161811	681.464827	1150.688001	37.463630	794.424365	927.626094	-70.380162	604.181618	1137.024470	-585.173096	778.445279	936.549701	-486.177098	161.572144	1291.396072	-248.193546	385.178531	1280.814516	-453.229353	377.531029	1238.064628	-53.514094	398.371182	1206.530054	-403.304308	390.778966	1178.175968	-91.469909	224.101779	1349.198515	-186.527299	215.364523	1351.000513	-283.471968	250.820310	1102.020074	-48.257507	299.884948	1179.261405	-470.199079	271.206120	972.373409	-41.303533	306.647210	890.710786	-50.376060	297.805423	805.523647	-69.656607	342.897914	897.349518	-55.250068	321.648254	703.830139	-92.136494	322.663881	682.989134	-216.593459	263.401064	559.098295	-76.093347	259.076531	471.719643	-89.040287	212.407549	397.985257	-91.571711	287.664724	465.535917	-115.075491	166.228528	269.335981	-101.555994	106.148650	284.684453	-150.529285	346.698309	125.718837	-148.739319	272.321123	131.491558	-78.863464	421.640633	1098.311181	-484.478824	500.528189	1065.257862	-477.951484	522.161148	1091.493370	-462.505620	555.383433	993.906834	-481.698020	646.873654	900.227317	-463.270917	656.484455	882.441394	-329.957786	308.243632	644.230167	-427.346265	250.306087	669.725545	-391.545187	306.043041	468.575714	-453.105293	553.758589	827.637725	-477.890331	505.015968	758.403045	-460.989880	425.861901	719.994345	-454.089072	527.973313	736.201981	-439.935019	373.398551	397.863169	-386.699171	-214.883618	956.679889	-255.727925	-17.712519	80.992339	-460.958700	-17.771069	80.856462	-62.049033	
1753	8.7650	800.477763	1374.627196	-106.791399	775.391712	1370.231735	-450.339818	763.058526	1467.776662	-277.044160	740.692296	1286.685430	-276.524229	681.965963	1151.077919	36.904778	794.539619	927.502080	-70.361108	602.583372	1136.120351	-585.823373	778.293467	936.586774	-486.253649	160.556617	1291.891382	-246.710565	382.616087	1282.336507	-453.656786	378.415422	1237.899985	-54.005170	396.724860	1208.502321	-403.277263	390.666168	1178.398427	-92.921183	223.714492	1349.364346	-185.379773	213.998661	1351.677836	-281.954033	250.848401	1102.704689	-47.845987	298.153171	1180.578803	-469.962154	270.097840	974.014107	-41.217134	304.814602	892.066669	-50.213411	295.002209	806.921007	-68.769180	341.041257	898.271562	-55.220891	317.705719	704.219083	-90.881354	320.291831	683.143113	-215.715247	258.490385	560.309877	-75.385380	253.461521	473.627205	-88.233517	205.387644	399.950630	-91.069862	281.598573	466.416830	-114.303979	157.671685	271.683794	-101.463594	98.082582	287.819775	-150.319375	336.469691	125.499943	-148.589550	262.052957	132.543086	-78.589285	421.625639	1100.467654	-483.719664	500.884248	1068.546763	-476.797830	522.384668	1095.563456	-462.434118	556.748916	997.937808	-480.259696	649.825496	905.606301	-461.353307	659.113351	888.153123	-327.429843	315.170236	644.214629	-426.940044	256.228216	668.024800	-391.179143	316.549466	468.070200	-452.711532	558.515376	830.838462	-475.613467	510.883959	760.766192	-458.980561	432.387163	720.912612	-452.876674	533.982753	739.159455	-437.502249	385.086665	398.805290	-386.728846	-214.920206	956.696823	-255.737060	-17.720217	80.982247	-460.950095	-17.786161	80.851236	-62.040580	
